<?xml version="1.0" encoding="utf-8"?>
<!-- Generator: Adobe Illustrator 23.0.3, SVG Export Plug-In . SVG Version: 6.00 Build 0)  -->
<svg version="1.1" id="Layer_1" xmlns="http://www.w3.org/2000/svg" xmlns:xlink="http://www.w3.org/1999/xlink" x="0px" y="0px"
	 viewBox="0 0 525.8 67.6" style="enable-background:new 0 0 525.8 67.6;" xml:space="preserve">
<style type="text/css">
	.st0{fill-rule:evenodd;clip-rule:evenodd;fill:#FFFFFF;}
	.st1{fill:#373433;}
	.st2{fill-rule:evenodd;clip-rule:evenodd;fill:#A90533;}
	.st3{fill-rule:evenodd;clip-rule:evenodd;fill:#A41F36;}
</style>
<rect class="st0" width="98.3" height="67.6"/>
<g>
	<path class="st1" d="M130.2,27.5V19h-8.9v8.5h-3.1V8.6h3.1v7.8h8.9V8.6h3v18.9H130.2z"/>
	<path class="st1" d="M146.8,27.5l-1-2.8h-6.1l-1.1,2.8h-3l5.5-14.6h3.6l5.5,14.6H146.8z M143.5,18.4c-0.3-0.8-0.6-1.6-0.8-2.3h0
		c-0.2,0.7-0.4,1.5-0.7,2.3l-1.6,4.1h4.6L143.5,18.4z"/>
	<path class="st1" d="M160,27.5l-4.2-6h-0.1v6h-3V13c1.1-0.1,3-0.1,4.8-0.1c3.5,0,5.5,1.3,5.5,4c0,2.4-1.7,3.8-4,4.2
		c0.3,0.4,0.7,1,1.2,1.6l3.6,4.9H160z M157,15.2c-0.5,0-0.9,0-1.3,0.1v4.2c0.4,0,0.9,0.1,1.4,0.1c1.6,0,2.6-0.9,2.6-2.3
		C159.7,15.9,158.7,15.2,157,15.2z"/>
	<path class="st1" d="M173.5,27.5h-3.5L164.4,13h3.3l2.8,7.5c0.4,1.2,0.8,2.5,1.2,3.8h0c0.4-1.3,0.8-2.6,1.2-3.8l2.9-7.6h3.1
		L173.5,27.5z"/>
	<path class="st1" d="M189.6,27.5l-1-2.8h-6.1l-1.1,2.8h-3l5.5-14.6h3.6l5.5,14.6H189.6z M186.3,18.4c-0.3-0.8-0.6-1.6-0.8-2.3h0
		c-0.2,0.7-0.4,1.5-0.7,2.3l-1.6,4.1h4.6L186.3,18.4z"/>
	<path class="st1" d="M202.8,27.5l-4.2-6h-0.1v6h-3V13c1.1-0.1,3-0.1,4.8-0.1c3.5,0,5.5,1.3,5.5,4c0,2.4-1.7,3.8-4,4.2
		c0.3,0.4,0.7,1,1.2,1.6l3.6,4.9H202.8z M199.7,15.2c-0.5,0-0.9,0-1.3,0.1v4.2c0.4,0,0.9,0.1,1.4,0.1c1.6,0,2.6-0.9,2.6-2.3
		C202.5,15.9,201.4,15.2,199.7,15.2z"/>
	<path class="st1" d="M213.7,27.6c-1.8,0-3.3-0.1-4.5-0.1V13c1.3,0,3.6-0.1,5.3-0.1c4.8,0,7.9,2,7.9,7.1
		C222.3,25.2,218.6,27.6,213.7,27.6z M214.1,15.3c-0.6,0-1.3,0-1.9,0.1V25c0.4,0,1.2,0.1,1.8,0.1c3,0,5.1-1.6,5.1-4.9
		C219.1,17,217.4,15.3,214.1,15.3z"/>
	<path class="st1" d="M225.5,20.7v-2.6h14v2.6H225.5z"/>
	<path class="st1" d="M260.9,27.5l-1.5-10.1c-0.3-2-0.4-3.4-0.6-4.6h-0.1c-0.2,1.1-0.5,2.3-1,3.7l-3.6,11h-3.2l-3.4-10.2
		c-0.5-1.5-1-3.1-1.2-4.5h-0.1c-0.1,1.6-0.3,3.1-0.5,4.9l-1.2,9.8h-3.1l2.8-18.9h3.6l3.6,10.9c0.4,1.4,0.8,2.6,1,3.9h0.1
		c0.3-1.4,0.6-2.4,1-3.8l3.7-11h3.7l2.9,18.9H260.9z"/>
	<path class="st1" d="M267.7,27.5V8.6h3.1v18.9H267.7z"/>
	<path class="st1" d="M281.2,11.2v16.3h-3.1V11.2H273V8.6h13.4v2.6H281.2z"/>
	<path class="st1" d="M130.2,57.5V49h-8.9v8.5h-3.1V38.6h3.1v7.8h8.9v-7.8h3v18.9H130.2z"/>
	<path class="st1" d="M137.4,57.5V43h8.6v2.4h-5.5v3.6h5.3v2.3h-5.3v3.9h5.5v2.4H137.4z"/>
	<path class="st1" d="M159.3,57.5l-1-2.8h-6.1l-1.1,2.8h-3l5.5-14.6h3.6l5.5,14.6H159.3z M156,48.4c-0.3-0.8-0.6-1.6-0.8-2.3h0
		c-0.2,0.7-0.4,1.5-0.7,2.3l-1.6,4.1h4.6L156,48.4z"/>
	<path class="st1" d="M165.1,57.5V43h3v11.9h5v2.6H165.1z"/>
	<path class="st1" d="M179.7,45.5v12h-3v-12h-4V43h11.1v2.6H179.7z"/>
	<path class="st1" d="M196.1,57.5v-6.2h-6.9v6.2h-3V43h3v5.8h6.9V43h3v14.6H196.1z"/>
	<path class="st1" d="M213.2,57.8c-1.4,0-2.7-0.2-3.8-0.4l0.2-2.9c1.1,0.4,2.5,0.7,3.9,0.7c2.1,0,3.8-0.9,3.8-2.9
		c0-4-8.3-2.3-8.3-8.4c0-3.2,2.5-5.5,6.9-5.5c1.1,0,2.3,0.1,3.4,0.3l-0.2,2.7c-1.1-0.3-2.3-0.5-3.4-0.5c-2.4,0-3.6,1.1-3.6,2.7
		c0,3.8,8.3,2.4,8.3,8.3C220.5,55.3,217.7,57.8,213.2,57.8z"/>
	<path class="st1" d="M229.8,57.7c-4.8,0-7.2-2.7-7.2-7.2c0-4.1,2.4-7.8,7.8-7.8c1,0,2.2,0.1,3.1,0.4l-0.3,2.7
		c-1-0.3-2.1-0.5-3.1-0.5c-2.9,0-4.4,2.1-4.4,5c0,3.1,1.7,4.8,4.6,4.8c1.1,0,2.2-0.3,3.1-0.7l0.3,2.7
		C232.6,57.5,231.3,57.7,229.8,57.7z"/>
	<path class="st1" d="M237.3,57.5V43h3v14.6H237.3z"/>
	<path class="st1" d="M245,57.5V43h8.6v2.4H248v3.6h5.3v2.3H248v3.9h5.5v2.4H245z"/>
	<path class="st1" d="M267.2,57.5l-5-7.9c-0.6-0.9-1.1-1.9-1.5-2.8h0c0.1,0.8,0.1,1.7,0.1,3.1l0,7.6h-2.9V43h4l4.9,7.8
		c0.6,0.9,1.1,1.8,1.6,2.9h0c-0.1-0.9-0.1-2.3-0.1-4.2l0-6.4h2.9v14.6H267.2z"/>
	<path class="st1" d="M281.6,57.7c-4.8,0-7.2-2.7-7.2-7.2c0-4.1,2.4-7.8,7.8-7.8c1,0,2.2,0.1,3.1,0.4l-0.3,2.7
		c-1-0.3-2.1-0.5-3.1-0.5c-2.9,0-4.4,2.1-4.4,5c0,3.1,1.7,4.8,4.6,4.8c1.1,0,2.2-0.3,3.1-0.7l0.3,2.7
		C284.3,57.5,283,57.7,281.6,57.7z"/>
	<path class="st1" d="M289,57.5V43h8.6v2.4H292v3.6h5.3v2.3H292v3.9h5.5v2.4H289z"/>
	<path class="st1" d="M303.5,57.8c-1,0-2.2-0.2-3-0.4l0.1-2.7c0.8,0.3,2,0.6,3.2,0.6c1.4,0,2.7-0.6,2.7-2c0-2.6-6.4-1.2-6.4-6
		c0-2.7,2.1-4.6,6-4.6c0.8,0,2,0.1,2.8,0.3l-0.1,2.6c-0.8-0.3-1.9-0.4-2.8-0.4c-1.8,0-2.7,0.7-2.7,1.8c0,2.5,6.5,1.4,6.5,6
		C309.8,55.9,307.2,57.8,303.5,57.8z"/>
	<path class="st1" d="M329.1,57.5l-1-2.8H322l-1.1,2.8h-3l5.5-14.6h3.6l5.5,14.6H329.1z M325.8,48.4c-0.3-0.8-0.6-1.6-0.8-2.3h0
		c-0.2,0.7-0.4,1.5-0.7,2.3l-1.6,4.1h4.6L325.8,48.4z"/>
	<path class="st1" d="M344.3,57.5l-5-7.9c-0.6-0.9-1.1-1.9-1.5-2.8h0c0.1,0.8,0.1,1.7,0.1,3.1l0,7.6H335V43h4l4.9,7.8
		c0.6,0.9,1.1,1.8,1.6,2.9h0c-0.1-0.9-0.1-2.3-0.1-4.2l0-6.4h2.9v14.6H344.3z"/>
	<path class="st1" d="M357.1,57.6c-1.8,0-3.3-0.1-4.5-0.1V43c1.3,0,3.6-0.1,5.3-0.1c4.8,0,7.9,2,7.9,7.1
		C365.7,55.2,362,57.6,357.1,57.6z M357.5,45.3c-0.6,0-1.3,0-1.9,0.1V55c0.4,0,1.2,0.1,1.8,0.1c3,0,5.1-1.6,5.1-4.9
		C362.5,47,360.8,45.3,357.5,45.3z"/>
	<path class="st1" d="M381.6,41.2v16.3h-3.1V41.2h-5.2v-2.6h13.4v2.6H381.6z"/>
	<path class="st1" d="M388,57.5V43h8.6v2.4H391v3.6h5.3v2.3H391v3.9h5.5v2.4H388z"/>
	<path class="st1" d="M406.8,57.7c-4.8,0-7.2-2.7-7.2-7.2c0-4.1,2.4-7.8,7.8-7.8c1,0,2.2,0.1,3.1,0.4l-0.3,2.7
		c-1-0.3-2.1-0.5-3.1-0.5c-2.9,0-4.4,2.1-4.4,5c0,3.1,1.7,4.8,4.6,4.8c1.1,0,2.2-0.3,3.1-0.7l0.3,2.7
		C409.5,57.5,408.2,57.7,406.8,57.7z"/>
	<path class="st1" d="M424.1,57.5v-6.2h-6.9v6.2h-3V43h3v5.8h6.9V43h3v14.6H424.1z"/>
	<path class="st1" d="M440.6,57.5l-5-7.9c-0.6-0.9-1.1-1.9-1.5-2.8h0c0.1,0.8,0.1,1.7,0.1,3.1l0,7.6h-2.9V43h4l4.9,7.8
		c0.6,0.9,1.1,1.8,1.6,2.9h0c-0.1-0.9-0.1-2.3-0.1-4.2l0-6.4h2.9v14.6H440.6z"/>
	<path class="st1" d="M454.9,57.8c-4.7,0-7.1-3-7.1-7.4c0-4.8,3.5-7.7,7.6-7.7c4.2,0,7.2,2.5,7.2,7.4
		C462.6,54.9,459.1,57.8,454.9,57.8z M455.2,45.3c-2.2,0-4.1,1.7-4.1,4.8c0,2.8,1.2,5,4,5c2.3,0,4.2-1.6,4.2-4.8
		S457.7,45.3,455.2,45.3z"/>
	<path class="st1" d="M465.7,57.5V43h3v11.9h5v2.6H465.7z"/>
	<path class="st1" d="M482.2,57.8c-4.7,0-7.1-3-7.1-7.4c0-4.8,3.5-7.7,7.6-7.7c4.2,0,7.2,2.5,7.2,7.4
		C489.9,54.9,486.4,57.8,482.2,57.8z M482.5,45.3c-2.2,0-4.1,1.7-4.1,4.8c0,2.8,1.2,5,4,5c2.3,0,4.2-1.6,4.2-4.8
		S485,45.3,482.5,45.3z"/>
	<path class="st1" d="M499.5,57.7c-4.4,0-7.5-2.5-7.5-7.2c0-4.4,3-7.8,8.1-7.8c1.5,0,3.1,0.2,4.6,0.7l-0.5,2.6
		c-1.3-0.5-2.6-0.8-4-0.8c-2.7,0-4.9,1.7-4.9,5c0,3.1,1.9,4.8,4.6,4.8c0.8,0,1.5-0.1,2.1-0.3v-4.9h3v6.9
		C503.3,57.4,501.5,57.7,499.5,57.7z"/>
	<path class="st1" d="M515.1,52.6v4.9h-3v-4.8L507,43h3.3l2.2,4.2c0.4,0.8,0.8,1.7,1.2,2.7h0c0.4-1,0.9-2,1.3-2.8l2.1-4h3.1
		L515.1,52.6z"/>
</g>
<g>
	<path class="st2" d="M86,0v23.3h-1.6v-4.4h-8.8v27.2H80v1.7H66.1v-1.7H71V18.9h-9.1v11.6h-2.1v-0.8c-0.1-1-0.4-2.6-1.3-3.3
		c-2.3-2.1-6.1-2.1-7.9,0.1c-1.9,2.3-1.4,6.1,1.8,8.3c2.5,1.7,5,3.1,7.5,4.8c3.8,2.7,4.9,5.9,3.7,9.5c-1.4,3.9-4.3,5.9-8.8,6.1
		c-3,0.1-6.1-1.1-8.2-2.4v14.8h51.9V0H86z"/>
	<path class="st3" d="M23.3,17.4v1.5h-3.2V31h17.2V18.9H34v-1.5h10.8v1.5h-3.2v27.9h5.3v0c1.1,4.3,3.8,5.6,7.6,5.4
		c2.6-0.1,5-1.4,5.4-4.1c0.4-2.7-1.4-4.7-3.5-6.1c-2.6-1.6-5.3-3.1-7.9-4.8c-5.1-3.5-4.9-10.7,0.5-13.3c2.2-1.1,3.1-1.2,5.7-1.3
		c1.3-0.1,3.7,0.5,5,0.8v-6h0.1v-0.1h24.6V0H0v17.4H23.3z"/>
	<polygon class="st2" points="44.8,48.3 34,48.3 34,46.8 37.3,46.8 37.3,34.2 20.1,34.2 20.1,46.8 23.5,46.8 23.5,48.3 12.7,48.3 
		12.7,46.8 15.4,46.8 15.4,18.9 0,18.9 0,67.6 44.8,67.6 	"/>
</g>
</svg>
